<svg width="249" height="35" viewBox="0 0 249 35" fill="none" xmlns="http://www.w3.org/2000/svg">
<path d="M13.1691 34.336C10.8331 34.336 8.72106 33.936 6.83306 33.136C4.97706 32.336 3.50506 31.184 2.41706 29.68C1.32906 28.176 0.769063 26.4 0.737063 24.352H7.93706C8.03306 25.728 8.51306 26.816 9.37706 27.616C10.2731 28.416 11.4891 28.816 13.0251 28.816C14.5931 28.816 15.8251 28.448 16.7211 27.712C17.6171 26.944 18.0651 25.952 18.0651 24.736C18.0651 23.744 17.7611 22.928 17.1531 22.288C16.5451 21.648 15.7771 21.152 14.8491 20.8C13.9531 20.416 12.7051 20 11.1051 19.552C8.92906 18.912 7.15306 18.288 5.77706 17.68C4.43306 17.04 3.26506 16.096 2.27306 14.848C1.31306 13.568 0.833063 11.872 0.833063 9.76C0.833063 7.776 1.32906 6.048 2.32106 4.576C3.31306 3.104 4.70506 1.984 6.49706 1.216C8.28906 0.415999 10.3371 0.0159998 12.6411 0.0159998C16.0971 0.0159998 18.8971 0.863999 21.0411 2.56C23.2171 4.224 24.4171 6.56 24.6411 9.568H17.2491C17.1851 8.416 16.6891 7.472 15.7611 6.736C14.8651 5.968 13.6651 5.584 12.1611 5.584C10.8491 5.584 9.79306 5.92 8.99306 6.592C8.22506 7.264 7.84106 8.24 7.84106 9.52C7.84106 10.416 8.12906 11.168 8.70506 11.776C9.31306 12.352 10.0491 12.832 10.9131 13.216C11.8091 13.568 13.0571 13.984 14.6571 14.464C16.8331 15.104 18.6091 15.744 19.9851 16.384C21.3611 17.024 22.5451 17.984 23.5371 19.264C24.5291 20.544 25.0251 22.224 25.0251 24.304C25.0251 26.096 24.5611 27.76 23.6331 29.296C22.7051 30.832 21.3451 32.064 19.5531 32.992C17.7611 33.888 15.6331 34.336 13.1691 34.336ZM63.8751 7.024C67.1391 7.024 69.7631 8.032 71.7471 10.048C73.7631 12.032 74.7711 14.816 74.7711 18.4V34H68.0511V19.312C68.0511 17.232 67.5231 15.648 66.4671 14.56C65.4111 13.44 63.9711 12.88 62.1471 12.88C60.3231 12.88 58.8671 13.44 57.7791 14.56C56.7231 15.648 56.1951 17.232 56.1951 19.312V34H49.4751V19.312C49.4751 17.232 48.9471 15.648 47.8911 14.56C46.8351 13.44 45.3951 12.88 43.5711 12.88C41.7151 12.88 40.2431 13.44 39.1551 14.56C38.0991 15.648 37.5711 17.232 37.5711 19.312V34H30.8511V7.408H37.5711V10.624C38.4351 9.504 39.5391 8.624 40.8831 7.984C42.2591 7.344 43.7631 7.024 45.3951 7.024C47.4751 7.024 49.3311 7.472 50.9631 8.368C52.5951 9.232 53.8591 10.48 54.7551 12.112C55.6191 10.576 56.8671 9.344 58.4991 8.416C60.1631 7.488 61.9551 7.024 63.8751 7.024ZM79.4199 20.608C79.4199 17.92 79.9479 15.536 81.0039 13.456C82.0919 11.376 83.5479 9.776 85.3719 8.656C87.2279 7.536 89.2919 6.976 91.5639 6.976C93.5479 6.976 95.2759 7.376 96.7479 8.176C98.2519 8.976 99.4519 9.984 100.348 11.2V7.408H107.116V34H100.348V30.112C99.4839 31.36 98.2839 32.4 96.7479 33.232C95.2439 34.032 93.4999 34.432 91.5159 34.432C89.2759 34.432 87.2279 33.856 85.3719 32.704C83.5479 31.552 82.0919 29.936 81.0039 27.856C79.9479 25.744 79.4199 23.328 79.4199 20.608ZM100.348 20.704C100.348 19.072 100.028 17.68 99.3879 16.528C98.7479 15.344 97.8839 14.448 96.7959 13.84C95.7079 13.2 94.5399 12.88 93.2919 12.88C92.0439 12.88 90.8919 13.184 89.8359 13.792C88.7799 14.4 87.9159 15.296 87.2439 16.48C86.6039 17.632 86.2839 19.008 86.2839 20.608C86.2839 22.208 86.6039 23.616 87.2439 24.832C87.9159 26.016 88.7799 26.928 89.8359 27.568C90.9239 28.208 92.0759 28.528 93.2919 28.528C94.5399 28.528 95.7079 28.224 96.7959 27.616C97.8839 26.976 98.7479 26.08 99.3879 24.928C100.028 23.744 100.348 22.336 100.348 20.704ZM120.399 11.536C121.263 10.128 122.383 9.024 123.759 8.224C125.167 7.424 126.767 7.024 128.559 7.024V14.08H126.783C124.671 14.08 123.071 14.576 121.983 15.568C120.927 16.56 120.399 18.288 120.399 20.752V34H113.679V7.408H120.399V11.536ZM140.909 12.928V25.792C140.909 26.688 141.117 27.344 141.533 27.76C141.981 28.144 142.717 28.336 143.741 28.336H146.861V34H142.637C136.973 34 134.141 31.248 134.141 25.744V12.928H130.973V7.408H134.141V0.831998H140.909V7.408H146.861V12.928H140.909Z" fill="black"/>
<path d="M183.087 26.8C183.087 29.392 182.623 31.248 181.695 32.368C180.767 33.456 179.359 34 177.471 34C175.615 34 174.255 33.504 173.391 32.512C172.527 31.488 172.095 29.696 172.095 27.136L172.047 21.712H162.255V26.8C162.255 29.424 161.807 31.28 160.911 32.368C160.015 33.456 158.591 34 156.639 34C154.783 34 153.423 33.504 152.559 32.512C151.695 31.488 151.263 29.696 151.263 27.136L151.119 6.88C151.119 4.896 151.615 3.44 152.607 2.512C153.631 1.584 154.975 1.12 156.639 1.12C158.559 1.12 159.967 1.472 160.863 2.176C161.791 2.88 162.255 4.304 162.255 6.448V14.512H171.999V6.88C171.999 5.536 172.239 4.432 172.719 3.568C173.231 2.672 173.871 2.048 174.639 1.696C175.439 1.312 176.383 1.12 177.471 1.12C179.327 1.12 180.719 1.472 181.647 2.176C182.607 2.88 183.087 4.304 183.087 6.448V26.8ZM187.9 4.432C187.9 3.376 188.348 2.512 189.244 1.84C190.172 1.136 191.468 0.783998 193.132 0.783998C196.62 0.783998 198.364 2 198.364 4.432C198.364 5.776 197.916 6.72 197.02 7.264C196.156 7.808 194.86 8.08 193.132 8.08C191.628 8.08 190.38 7.792 189.388 7.216C188.396 6.64 187.9 5.712 187.9 4.432ZM198.316 28.864C198.316 30.784 197.916 32.128 197.116 32.896C196.316 33.632 194.908 34 192.892 34C191.004 34 189.708 33.568 189.004 32.704C188.332 31.808 187.996 30.352 187.996 28.336V16.528C187.996 14.896 188.428 13.584 189.292 12.592C190.188 11.6 191.372 11.104 192.844 11.104C194.572 11.104 195.916 11.488 196.876 12.256C197.836 12.992 198.316 14.368 198.316 16.384V28.864ZM212.989 28.864C212.989 30.784 212.589 32.128 211.789 32.896C210.989 33.632 209.565 34 207.517 34C205.629 34 204.349 33.568 203.677 32.704C203.005 31.808 202.669 30.352 202.669 28.336V16.528C202.669 15.44 202.861 14.496 203.245 13.696C203.629 12.864 204.189 12.224 204.925 11.776C205.661 11.328 206.525 11.104 207.517 11.104C209.949 11.104 211.549 11.808 212.317 13.216C214.173 11.808 215.965 11.104 217.693 11.104C221.053 11.104 222.733 12.704 222.733 15.904C222.733 17.184 222.365 18.224 221.629 19.024C220.893 19.824 219.933 20.224 218.749 20.224C218.045 20.224 217.469 20.08 217.021 19.792C216.605 19.504 216.205 19.216 215.821 18.928C215.469 18.64 215.053 18.496 214.573 18.496C213.869 18.496 213.341 18.736 212.989 19.216V28.864ZM237.572 34.288C233.668 34.288 230.436 33.28 227.876 31.264C225.348 29.248 224.084 26.496 224.084 23.008C224.084 19.232 225.332 16.256 227.828 14.08C230.356 11.872 233.604 10.768 237.572 10.768C241.316 10.768 244.052 11.44 245.78 12.784C247.54 14.096 248.42 15.904 248.42 18.208C248.42 18.656 248.356 19.088 248.228 19.504C248.132 19.92 247.956 20.336 247.7 20.752C247.476 21.136 247.156 21.504 246.74 21.856C246.356 22.176 245.908 22.48 245.396 22.768C244.884 23.024 244.276 23.232 243.572 23.392C242.868 23.52 242.116 23.584 241.316 23.584L234.548 23.632C234.868 24.656 235.444 25.472 236.276 26.08C237.108 26.656 238.164 26.944 239.444 26.944C240.82 26.944 242.228 26.768 243.668 26.416C244.276 26.256 244.932 26 245.636 25.648C246.372 25.296 246.9 25.12 247.22 25.12C247.764 25.12 248.18 25.28 248.468 25.6C248.788 25.92 248.948 26.32 248.948 26.8C248.948 27.376 248.692 28.08 248.18 28.912C247.668 29.712 246.948 30.528 246.02 31.36C245.124 32.16 243.924 32.848 242.42 33.424C240.916 34 239.3 34.288 237.572 34.288ZM234.308 20.56C236.516 20.528 237.716 20.512 237.908 20.512C238.388 20.512 238.74 20.224 238.964 19.648C239.124 19.232 239.204 18.656 239.204 17.92C239.204 15.904 238.596 14.896 237.38 14.896C236.932 14.896 236.484 15.136 236.036 15.616C235.62 16.096 235.252 16.784 234.932 17.68C234.612 18.544 234.404 19.504 234.308 20.56Z" fill="#74DD9E"/>
</svg>